<?xml version="1.0" encoding="UTF-8"?>
<svg id="Layer_1" data-name="Layer 1" xmlns="http://www.w3.org/2000/svg" width="136.46" height="62.01" viewBox="0 0 136.46 62.01">
  <defs>
    <style>
      .cls-1 {
        fill: #c1c1c1;
      }

      .cls-1, .cls-2, .cls-3, .cls-4, .cls-5, .cls-6, .cls-7, .cls-8, .cls-9, .cls-10, .cls-11, .cls-12, .cls-13, .cls-14, .cls-15, .cls-16, .cls-17, .cls-18, .cls-19 {
        stroke-width: 0px;
      }

      .cls-2 {
        fill: #1b1b1b;
      }

      .cls-3 {
        fill: #222;
      }

      .cls-4 {
        fill: #040404;
      }

      .cls-5 {
        fill: #252525;
      }

      .cls-6 {
        fill: #171717;
      }

      .cls-7 {
        fill: #1a1a1a;
      }

      .cls-8 {
        fill: #141414;
      }

      .cls-9 {
        fill: #232323;
      }

      .cls-10 {
        fill: #0d0d0d;
      }

      .cls-20 {
        fill: #6cb4ee;
      }

      .cls-20, .cls-21 {
        stroke: #6cb4ee;
        stroke-miterlimit: 10;
      }

      .cls-11 {
        fill: #272727;
      }

      .cls-12 {
        fill: #1f1f1f;
      }

      .cls-13 {
        fill: #1c1c1c;
      }

      .cls-14 {
        fill: #1e1e1e;
      }

      .cls-15 {
        fill: #1d1d1d;
      }

      .cls-16 {
        fill: #181818;
      }

      .cls-21 {
        fill: #202020;
      }

      .cls-17 {
        fill: #212121;
      }

      .cls-18 {
        fill: #191919;
      }

      .cls-19 {
        fill: #111;
      }
    </style>
  </defs>
  <path class="cls-21" d="m50.21,34.64c-.84.02-1.68,0-2.51.07-.85.08-1.07-.25-1.06-1.07.04-4.18-.02-8.37.04-12.55.02-1.15-.2-1.7-1.48-1.51-1.02.15-2.33-.41-3.01.22-.69.64-.22,1.96-.23,2.98-.03,3.62-.04,7.25,0,10.87,0,.84-.26,1.07-1.08,1.07-2.87,0-2.87.02-2.87-2.84v-13.14c0-1.95.54-2.5,2.47-2.5h12.47c4.68.07,6.31,1.71,6.32,6.39,0,3.66-.02,7.33.02,10.99,0,.8-.17,1.18-1.05,1.09-.83-.08-1.67-.05-2.51-.07-.26-1.18-.09-2.37-.11-3.56-.03-2.47,0-4.94,0-7.41,0-.28-.11-.6,0-.72-.04.12,0,.41,0,.69v9.8c0,.39.1.8-.11,1.17-.32-.34-.16-.76-.16-1.13,0-3.62,0-7.23,0-10.85,0-2.55-1.87-3.85-4.31-3.02-.61.21-.38.72-.38,1.1-.02,4.21,0,8.43-.02,12.64,0,.42.17.87-.16,1.25-.24-.58-.1-1.18-.11-1.77,0-4.04,0-8.08,0-11.86-.07-.42-.31-.24-.15-.27.1-.02.15.04.15.12,0,3.38.02,6.76,0,10.14,0,1.22.15,2.45-.11,3.67h-.03Z"/>
  <path class="cls-20" d="m55.47,56.22c-1.35-.8-2.33-1.99-3.35-3.13-.35-1.13-.02-1.63,1.13-1.45,1.82.29,3.63.49,5.45.24,1.68-.23,3.24-.08,4.73.74.21.11.46.13.68-.02,4.35,1.57,8.67,1.62,12.96-.2,2.29-.97,4.21-2.44,5.82-4.3.63-.72,1.32-1.03,2.29-1,2.04.06,4.07,0,6.11.02,1.28,0,1.35.09.78,1.15-3.95,7.34-10.04,11.68-18.32,12.94-2.02.31-4.04.48-6.06,0-.37-.71-.65-1.44-.76-2.24-.17-1.21-1.78-2.43-2.98-2.23-.64.11-1.17.03-1.7-.3-.35-.22-.75-.22-1.15-.25-1.14-.08-2.3.16-3.43-.31-.75-.31-1.46.29-2.21.33h0Z"/>
  <path class="cls-21" d="m92.04,34.67c-1.72,0-3.44.06-5.15,0-3.44-.14-5.12-1.79-5.24-5.23-.09-2.63-.09-5.26,0-7.88.12-3.5,1.93-5.23,5.44-5.29,2.6-.04,5.2.01,7.79-.04.79-.01,1.01.25,1.01,1.02.01,2.37.04,2.37-2.27,2.37-1.88,0-3.76-.02-5.63.01-1.77.03-2.45.78-2.44,2.51.02,2.27,0,4.54,0,6.81,0,1.58.6,2.32,2.18,2.39,1.92.08,3.84.02,5.75.06.65.01.81-.28.8-.87-.03-1.39.02-2.79-.02-4.18-.03-1.15.85-.85,1.33-.74.86.21,2.36-.86,2.51.7.23,2.53.04,5.09.08,7.64,0,.66-.28.79-.86.79-1.76-.02-3.52,0-5.28,0v-.06Z"/>
  <path class="cls-20" d="m73.26,1.41c.72.1,1.43.2,2.15.3.71.45.42.9-.09,1.19-1.64.95-3.11,2.07-4.21,3.64-.16.23-.42.37-.71.4-.61.07-1.01.36-1.28.93-.24.53-.74.79-1.29.61-1.42-.47-2.29.21-3,1.3-2.24,1.06-4.45,2.17-6.13,4.07-.29.33-.61.48-1.03.16-4.14-3.09-7.03-7.07-8.7-12.11.64.04.86.45,1.14.73,1.18,1.2,2.51,2.21,3.85,3.21.83.62,1.47.58,2.34-.04,4.56-3.26,9.65-4.85,15.28-4.6.54.25,1.15-.08,1.68.2h0Z"/>
  <path class="cls-21" d="m16.54,34.69c-1.68,0-3.06-.02-4.45,0-.49,0-.71-.32-.95-.62-1.78-2.25-3.56-4.5-5.31-6.78-1.16-1.5-1.13-2.37.09-3.84,1.84-2.21,3.71-4.38,5.54-6.59.39-.47.8-.69,1.42-.66,1.23.05,2.47.01,3.97.01-.89,1.02-1.63,1.88-2.37,2.73-1.66,1.89-3.31,3.79-5,5.64-.49.53-.55.86-.05,1.46,2.33,2.77,4.61,5.59,7.1,8.64h.01Z"/>
  <path class="cls-20" d="m69.89,28.88c-.88,0-1.76.04-2.63.02-.71-.02-1.02.27-1.01.99.02,1.19-.03,2.39,0,3.58.03.84-.24,1.23-1.15,1.22-3.35-.06-2.86.36-2.84-2.73.02-3.73-.22-7.47.17-11.2.04-.39.18-.77.28-1.15.5-.36.88.06,1.31.2,1.74.59,2.73,1.74,2.75,3.63,0,.44.1.86.48,1.16.6.44,1.29.34,1.96.38,1.31.08,2.63-.21,3.92.25.58.73,1.25,1.39,1.31,2.43.05.79-.11,1.17-1,1.15-1.18-.02-2.37-.12-3.55.07Z"/>
  <path class="cls-21" d="m.52,25.31c0-2.7.03-5.41-.02-8.11,0-.79.24-1,1.02-1,3-.02,2.99-.04,2.99,2.96,0,4.77-.02,9.54.02,14.31,0,.86-.12,1.26-1.15,1.25-2.86-.05-2.86,0-2.86-2.85,0-2.19,0-4.37,0-6.56Z"/>
  <path class="cls-20" d="m83.33,5c.25.12.56.18.75.36,1.24,1.18,2.36,1.08,3.62-.05,1.33-1.19,2.82-2.2,4.12-3.79-.07,1.14-.48,1.93-.82,2.72-1.62,3.66-4.03,6.73-7.16,9.25-.65.52-1.09.59-1.74.02-1.59-1.4-3.32-2.6-5.26-3.48-.42-1.1.33-1.82,1.04-2.27,1.22-.77,2.17-1.94,3.64-2.38.6-.18,1.15-.48,1.81-.38Z"/>
  <path class="cls-20" d="m64.11,52.6c-.21.09-.53.32-.62.25-.97-.73-2.11,0-3.17-.45-.65-.27-1.54.2-2.38.18-1.55-.03-3.09-.04-4.61-.36-.74-.16-1.16.09-1.22.86-1.48-1.49-2.55-3.26-3.51-5.1-.32-.61-.13-.88.55-.88,2.44,0,4.88,0,7.31,0,.6,0,.92.37,1.26.78,1.76,2.05,3.85,3.68,6.38,4.71h.01Z"/>
  <path class="cls-20" d="m69.89,28.88c.92-.37,1.9-.23,2.84-.18,1.17.06,1.35-.35,1.06-1.39-.17-.64-.61-1.11-.79-1.71,1.3-1.18,1.2-2.68.99-4.21-.04-.27-.06-.55.07-.81.6-.83,1.24-.64,1.74.05.56.78,1.15,1.51,1.9,2.12.52.42.35,1.19.81,1.64,0,2.98-.02,5.97.04,8.95.02,1.08-.42,1.36-1.42,1.35-2.75-.04-2.42.16-2.43-2.33-.02-3.42,0-3.42-3.48-3.43-.44,0-.88-.03-1.32-.04h0Z"/>
  <path class="cls-20" d="m55.47,56.22c.47-1.28,1.55-1.12,2.51-.91.7.15,1.37.22,2.09.24.95.03,2.06-.5,2.84.55.08.11.4.15.56.08,1.27-.52,2.07.28,2.99.93,1.52,1.07,1.38,2.57,1.25,4.1-4.59-.42-8.69-2.04-12.23-4.99h0Z"/>
  <path class="cls-20" d="m83.33,5c-1.05.53-2.16,1.09-3.04,1.73-1.24.91-2.84,1.66-3.45,3.3-1.63-.62-3.35-.85-5.04-1.19-.28-.59-.09-1.02.37-1.46,1.63-1.57,3.54-2.81,5.25-4.29.31-.27.76-.22,1.09-.45,1.77.45,3.35,1.3,4.82,2.36Z"/>
  <path class="cls-20" d="m78.5,2.64c-.57.98-1.49,1.59-2.37,2.24-1.37,1-2.65,2.11-3.88,3.27-.19.18-.31.46-.45.69-2.38-.14-4.67.37-6.96.94-.13-1.49,1.06-2.46,2.65-2.02.76.21,1.11.14,1.29-.64.1-.44.35-.9.88-.8.8.16,1.17-.31,1.55-.84.88-1.22,2.06-2.07,3.36-2.8.38-.21,1-.28.84-.97,1.08.16,2.11.48,3.1.93h-.01Z"/>
  <path class="cls-20" d="m78.49,24.38c-1.06-.98-2.16-1.91-2.97-3.12-.26-.39-.48-.84-1.08-.72-.8.42-1.24-.29-1.82-.57-.82-1.14-2.08-1.64-3.25-2.27-.56-.3-1.21-.59-.7-1.43,1.82-.01,3.64-.02,5.47.13,3.14.26,4.27,2.73,4.37,4.89.05,1.03,0,2.06-.01,3.09h-.01Z"/>
  <path class="cls-20" d="m68.67,16.27c.22.7.86.93,1.43,1.13,1.2.43,2.03,1.31,2.89,2.17-.21.58-.74.54-1.2.58-.88.06-1.76,0-2.63.05-1.63.08-2.21.67-2.28,2.28-.03.6,0,1.19-.03,1.79-.02.49-.12.95-.53,1.28-.52-.84-.28-1.77-.26-2.66.01-.93-.19-1.54-1.13-1.93-.79-.33-1.48-.89-2.22-1.35.57-2.05,2.05-3.12,4.65-3.33.43-.04.87,0,1.31,0h0Z"/>
  <path class="cls-15" d="m74.15,43.75c-.72-.51-.35-1.02-.11-1.32.88-1.07,1.02-2.04-.11-3.01-.08-.07-.1-.21-.14-.32,0-.02.03-.06.09-.15.76.16.81,1.09,1.45,1.39.71-.51.9-1.55,1.97-1.74-.27.35-.52.72-.82,1.05-1.08,1.22-1.09,1.22.21,2.27.33.27.7.48,1.17.79-1,.14-1.51-.47-1.98-1s-.71-.45-1.03.1c-.34.58-.71,1.14-.72,1.96l.02-.02Z"/>
  <path class="cls-7" d="m81.45,39.46c-2.43,1.43-3.36,5.19-1.64,6.84-.7.2-.95-.32-1.01-.73-.3-2.06-.11-4.12.29-6.16.02-.08.17-.13.27-.2.37.42-.05.86.1,1.35.53-.4.84-1.08,1.55-1.16.16-.09.31-.06.43.06h.01Z"/>
  <path class="cls-6" d="m49.85,39.95c-1.01,1.08-1.56,2.25-2.34,3.36.14-1.15.28-2.29.46-3.71.62.74.23,1.25.13,2.07.52-.72.84-1.18,1.18-1.63.17-.22.37-.44.69-.37.38.08.46.39.5.72.07.55.16,1.1.2,1.65.03.5.14.92.81,1.14-.46-.02-1-1.09-1.63-3.22h0Z"/>
  <path class="cls-9" d="m52.46,43.31c.62-.28,1.22-.22,1.65-.58.22-.18.46-.35.37-.68-.08-.31-.34-.41-.63-.44-.08,0-.16,0-.24,0-.53-.05-1.35.19-1.47-.44-.16-.86.68-1.34,1.29-1.83.5-.4,1.01-.57,1.72.21-1.15-.23-1.8.19-2.33.87-.35.45-.27.72.33.76.12,0,.24,0,.36.02.53.11,1.16.09,1.39.73.16.44-.14.78-.44,1.02-.54.42-1.11.86-2.01.37h0Z"/>
  <path class="cls-3" d="m42.81,39.38c-.55.2-1.01-.06-1.39.27-.41.36-1.08.62-.98,1.23.09.52.75.26,1.14.35.49.12,1.02.21,1.09.75.08.62-.4.99-.9,1.28-.45.26-.91.45-1.51.08.6-.23,1.11-.4,1.6-.62.25-.12.47-.33.4-.66-.07-.32-.33-.41-.62-.45-.12,0-.24,0-.36-.02-.5-.05-1.16.17-1.37-.43-.2-.59.33-1.04.75-1.38.57-.45,1.11-1.26,2.16-.4h-.01Z"/>
  <path class="cls-4" d="m50.21,34.64v-14.5h.23v14.47c-.08,0-.15.02-.23.03Z"/>
  <path class="cls-2" d="m102.83,42.52c-.47.74-1.09,1.37-1.94.83-.92-.59-.55-1.46-.22-2.23.28-.65.66-1.27,1.24-1.72.63-.49,1.21-.43,1.87.19-1.59-.14-2.49.54-2.89,2.1-.11.41-.25.91.13,1.23.37.31.83.12,1.23-.07.2-.1.39-.22.58-.33Z"/>
  <path class="cls-4" d="m55.49,34.61v-12.32h.23v12.35c-.08,0-.15-.02-.23-.03Z"/>
  <path class="cls-15" d="m55.99,42.97c.59.29.75-.22,1-.55.69-.9,1.1-1.96,1.54-3.32.51,1.36-.64,2.92.91,3.69-.63.5-.78.39-1.36-1.29-.76.57-.66,2.11-2.14,1.87-.1-.15-.08-.28.05-.41h0Z"/>
  <path class="cls-5" d="m66.9,43.69c-.88.2-1.16-.32-1.28-.79-.53-2.04-.09-4.04.2-6.03.12,0,.24,0,.35.02-.11,1.17-.3,2.34-.31,3.5,0,1.15-.46,2.49,1.03,3.3h.01Z"/>
  <path class="cls-2" d="m63.47,39.18c-.9,1.04-1.89,2-2.54,3.22-.35.66-.19.95.58.84-.14.41-.47.53-.83.41-.25-.09-.38-.34-.35-.67.11-1.19,1.96-3.46,3.15-3.81h-.01Z"/>
  <path class="cls-3" d="m87.65,40.54c-.45.91-.11,1.98-.7,2.88v-4.09c.72-.03.17.76.68.82.1.13.11.26.02.4h0Z"/>
  <path class="cls-18" d="m81.45,39.46c-.14-.02-.29-.04-.43-.06.78-.49,1.11-.04,1.23.64.18.96-.99,2.78-1.91,3.07-.34.11-.63.11-.83-.22-.05-.08-.03-.25.03-.33.15-.21.14.06.22.09.9.31,1.21-.43,1.5-.96.36-.67,1.09-1.4.2-2.22h0Z"/>
  <path class="cls-6" d="m96.82,41.42c-.32.69-.63,1.38-.95,2.06-.09-.03-.18-.06-.28-.09.18-1.18.35-2.36.56-3.77.53.59.35.98.21,1.37-.12.34.01.43.33.31.07-.03.14-.06.21-.09-.03.07-.05.14-.08.21Z"/>
  <path class="cls-11" d="m90.3,39.46c.06,1.53-1,2.99.59,4.02-.46.39-.7.06-.93-.28-.54-.81-.45-2.39.35-3.73h0Z"/>
  <path class="cls-8" d="m97.67,39.9c.75-.65.87.05.98.51.13.57.14,1.18.19,1.77.04.47.19.83.67,1-.82.16-.98-.46-1.1-1.04-.15-.73-.07-1.5-.4-2.2-.13.11-.24.1-.34-.04Z"/>
  <path class="cls-19" d="m55.99,42.97c-.02.14-.03.27-.05.41-.66-1.42.12-2.58.65-3.79,0,1.17-.64,2.21-.6,3.38Z"/>
  <path class="cls-10" d="m87.65,40.54c0-.13-.02-.26-.02-.4.65-1.31.83-1.4,1.74-.84-1.1-.21-1.2.77-1.71,1.24h-.01Z"/>
  <path class="cls-16" d="m97.67,39.9c.11,0,.23.02.34.04-.4.49-.79.99-1.19,1.48-.04-.04-.09-.08-.13-.12.16-.58.48-1.05.98-1.4Z"/>
  <path class="cls-1" d="m73.26,1.41c-.57,0-1.15.09-1.68-.2.57,0,1.15-.08,1.68.2Z"/>
  <path class="cls-21" d="m135.93,27.54h-.04c0-2.19.11-4.38-.03-6.56-.18-2.8-1.53-4.2-4.27-4.59-2.42-.34-4.87-.28-7.29-.08-2.67.22-4.07,1.58-4.49,4.02-.13.74-.17,1.5-.17,2.26-.02,3.06,0,6.13,0,9.19s0,2.97,3.03,2.94c.84,0,.99-.32.96-1.05-.05-1.23.03-2.47-.03-3.7-.04-.81.18-1.13,1.05-1.09,1.47.07,2.95.02,4.43.02,1.96,0,2.94.99,2.94,2.98,0,2.87,0,2.83,2.88,2.84.86,0,1.08-.28,1.06-1.09-.05-2.03-.02-4.06-.02-6.09h-.01Zm-4.76-1.99c-1.12-.03-2.23,0-3.35,0s-2.24-.02-3.35,0c-.57.01-.9-.11-.87-.78.04-1.03-.02-2.07.02-3.1.06-1.32.68-1.97,2.02-2.04,1.43-.07,2.87-.07,4.31,0,1.39.07,2,.75,2.05,2.13.04.99-.02,1.99.02,2.98.03.66-.26.82-.85.8h0Z"/>
  <path class="cls-21" d="m34.84,27.3c-.1-1.99.2-4.43-.15-6.85-.35-2.4-1.64-3.65-4.02-4.04-1.95-.32-3.91-.17-5.86-.17-4.55,0-6.24,1.69-6.25,6.2v9.44c0,2.94,0,2.92,3,2.83.66-.02.92-.19.9-.88-.04-1.35.02-2.71-.02-4.06-.02-.68.23-.9.9-.88,1.56.04,3.12.01,4.68.01,1.97,0,2.96,1,2.96,2.99,0,2.94,0,2.92,3,2.82.67-.02.9-.2.89-.89-.04-2.03,0-4.06,0-6.53h-.02Zm-7.28-1.76h-.96c-1.12,0-2.24-.02-3.35,0-.62.02-.86-.2-.83-.83.05-.95-.02-1.91.03-2.86.08-1.5.76-2.18,2.24-2.24,1.31-.05,2.63-.05,3.95,0,1.51.05,2.16.71,2.3,2.19.23,2.49-.9,3.73-3.38,3.73h0Z"/>
  <path class="cls-7" d="m36.27,41.95c.07-.71.17-1.41.26-2.12.04-.28.09-.58-.17-.77-.33-.25-.62-.02-.87.16-1.19.86-2.05,1.99-2.58,3.36-.13.33-.25.7.09.99.43.36.74-.03,1.06-.22.62-.37,1.04-.96,1.55-1.5.45,1.34.62,1.43,1.61.7-.97.49-1.01-.03-.95-.6Zm-2.62,1.28c-.14.04-.34.12-.41-.08-.05-.14-.06-.33,0-.45.68-1.29,1.48-2.48,2.78-3.4.09,1.29-1.41,3.66-2.38,3.93h.01Z"/>
  <path class="cls-17" d="m93.24,42.95c-.35.18-.73.4-1.11.06-.28-.25-.16-.59-.12-.9.06-.44.35-.51.76-.54,1.05-.09,1.4-.92,1.66-1.78.09-.29.01-.56-.24-.74-.29-.2-.54-.03-.76.14-.99.76-1.62,1.77-1.89,2.96-.23,1.02.62,1.69,1.62,1.28.88-.36,1.5-1,1.74-1.97-.56.5-.97,1.15-1.66,1.5h0Zm.88-3.64c-.16,1.04-.48,1.73-1.69,1.85.43-.81.82-1.44,1.69-1.85Z"/>
  <path class="cls-14" d="m85.94,41.32c-.61.76-1.1,1.44-1.92,1.76-.42.16-.88.19-.92-.34-.03-.41-.34-1.15.56-1.15,1.11,0,1.46-.82,1.82-1.62.14-.3.12-.62-.17-.87-.34-.3-.59-.05-.85.11-.49.3-.8.77-1.11,1.24-.93,1.42-1.01,2.55-.24,2.99.81.45,2.17-.35,2.82-1.67.03-.06,0-.15,0-.45h0Zm-.87-1.87c-.06.86-.38,1.52-1.62,1.77.45-.88.93-1.42,1.62-1.77Z"/>
  <path class="cls-13" d="m105.86,43c-.33.14-.67.32-1.01.03-.3-.25-.18-.59-.14-.89.05-.39.24-.56.72-.57,1.14-.03,1.46-.93,1.72-1.84.07-.24,0-.48-.2-.65-.28-.24-.54-.07-.76.1-1.03.77-1.7,1.8-1.93,3.05-.18.99.63,1.58,1.59,1.21.89-.35,1.52-.99,1.78-1.98-.6.5-1.01,1.21-1.76,1.54h0Zm.85-3.58c-.07.93-.37,1.65-1.55,1.74.35-.84.88-1.35,1.55-1.74Z"/>
  <path class="cls-6" d="m45.05,42.98c-.36.19-.73.35-1.11.03-.3-.25-.16-.59-.12-.89.07-.4.29-.54.74-.56,1.06-.04,1.38-.92,1.73-1.72.13-.3.02-.54-.2-.74-.27-.24-.53-.12-.75.05-1.01.77-1.74,1.75-1.91,3.03-.16,1.17.64,1.69,1.73,1.17.81-.39,1.37-1,1.55-1.9-.51.57-.97,1.17-1.66,1.53h0Zm.91-3.84c-.15,1.24-.52,1.87-1.78,2.12.47-.88.94-1.44,1.78-2.12Z"/>
  <path class="cls-2" d="m71.48,43.07c-.46.17-.94.23-1.04-.35-.08-.45-.13-1.13.62-1.13,1,0,1.37-.66,1.72-1.39.17-.36.37-.76-.04-1.08-.48-.38-.82.04-1.12.31-.58.5-.98,1.14-1.3,1.83-.32.71-.64,1.5.11,2.06.79.59,1.5.02,2.13-.47.21-.16.44-.34.45-.89-.59.42-.96.9-1.53,1.11Zm1.13-3.89c-.17,1.21-.51,1.89-1.72,1.96.43-.77.83-1.37,1.72-1.96Z"/>
  <path class="cls-21" d="m114.37,28.05c-.35-.63-.45-.98.38-1.3,3.39-1.32,3.04-8.19.53-9.57-.6-.33-1.17-.65-1.87-.74-3.7-.46-7.42-.08-11.12-.24-1.01-.05-1.17.34-1.17,1.23.04,4.93.02,9.87.02,14.8,0,2.46,0,2.41,2.51,2.49,1.11.04,1.63-.19,1.46-1.41-.1-.74-.02-1.51-.02-2.27,0-3.55,0-3.54,3.62-3.42.6.02.94.22,1.21.74.98,1.86,2.01,3.71,3.02,5.55.2.37.33.8.91.79,1.3-.03,2.6,0,4.1,0-1.26-2.33-2.4-4.5-3.59-6.64h.01Zm-2.81-3.92c-1.97.38-3.98.12-5.97.16-.43,0-.49-.32-.49-.66,0-1.11.01-2.23,0-3.34,0-.51.2-.71.71-.69.92.03,1.84,0,2.76,0v.03c.92,0,1.85-.08,2.75.02,1.07.12,1.71.73,1.76,1.89.06,1.56-.31,2.36-1.51,2.59h-.01Z"/>
  <g>
    <path class="cls-12" d="m63.94,42.65c-.08-.26-.13-.54-.11-.81.06-.66.14-1.32.27-1.97.08-.41.15-.73-.43-.67.48.76.21,1.62-.23,2.12-.6.68-1.14,1.48-1.97,1.96.87-.09,1.09-1.06,1.83-1.42.05.31.04.56.13.77.13.31.38.52.75.46.13-.02.35-.18.34-.26-.06-.45-.49.14-.58-.18Z"/>
    <path class="cls-12" d="m61.48,43.25l-.02.02.04-.03h-.02Z"/>
  </g>
</svg>