<?xml version="1.0" encoding="UTF-8"?>
<svg id="Layer_1" data-name="Layer 1" xmlns="http://www.w3.org/2000/svg" width="557.77" height="312.2" viewBox="0 0 557.77 312.2">
  <defs>
    <style>
      .cls-1 {
        fill: #393939;
      }

      .cls-1, .cls-2, .cls-3, .cls-4, .cls-5, .cls-6, .cls-7, .cls-8, .cls-9 {
        stroke-width: 0px;
      }

      .cls-2 {
        fill: #087486;
      }

      .cls-3 {
        fill: #545454;
      }

      .cls-4 {
        fill: #2c2c2c;
      }

      .cls-5 {
        fill: #097486;
      }

      .cls-6 {
        fill: #248494;
      }

      .cls-7 {
        fill: #5fa4b0;
      }

      .cls-8 {
        fill: #383838;
      }

      .cls-9 {
        fill: #242424;
      }
    </style>
  </defs>
  <path class="cls-3" d="m557.77,174.58c-1.72.36-3.36.29-3.9-1.71-.39-1.44.85-1.39,1.81-1.43,1.21.21,1.38,1.44,2.09,2.14v1Z"/>
  <path class="cls-9" d="m557.77,173.58c-1.03-.38-1.69-1.14-2.09-2.14.41-.97,1.3-.81,2.09-.86v3Z"/>
  <path class="cls-2" d="m178.75,180.67c-5.26-2.8-8.85-7.5-12.7-11.74-13.24-14.6-23.82-30.97-31.03-49.38-5.03-12.84-8.71-26.09-6.91-40.01,1.61-12.46,8.03-22.47,18.32-29.77,9.5-6.75,19.62-11.95,31.74-12.01,12-.06,21.34,5.87,30.06,13.09,1.8,1.49,4.25,2.61,5.1,5.56-14.28-4.85-28.23-3.56-40.98,3.55-9.06,5.05-15.67,12.89-17.86,23.81-1.37,6.8-2.99,13.53-2.74,20.48.51,13.95,3.68,27.34,9.32,40.11,5.46,12.36,12.5,23.84,19.88,35.12.08,1.92-1.01,1.65-2.21,1.19Z"/>
  <path class="cls-2" d="m131.86,273.43c0,11.15-.08,22.29.05,33.44.04,3.25-.45,4.38-4.31,4.14-8.69-.55-8.71-.18-8.71-8.51,0-12.31.16-24.63-.1-36.93-.07-3.46.99-4.4,4.14-4.04,1.64.18,3.32.03,4.99.03,11.05,0,10.92.05,15.01,10.63,3.12,8.08,6.63,16.02,10.26,24.75,4.48-10.9,8.77-21.02,12.75-31.26,1.19-3.06,2.63-4.54,6.08-4.28,4.13.31,8.3.2,12.44.04,2.57-.1,3.45.71,3.43,3.38-.12,14.31-.14,28.62.02,42.92.03,2.69-1.04,3.34-3.3,3.42q-9.88.39-9.88-9.44v-28.33c-.25-.08-.51-.17-.76-.25-3.33,8.25-6.66,16.49-9.99,24.74-.92,2.27-1.8,4.56-2.72,6.83-2.23,5.45-7.1,7.89-12.64,6.43-2.04-.53-2.09-2.37-2.66-3.8-4.53-11.36-9-22.74-13.49-34.11-.21.07-.41.14-.62.2Z"/>
  <path class="cls-2" d="m303.1,306.34c-10.12,7.89-21.98,6.07-32.94,4.48-13.63-1.98-20.51-17.74-15.95-33,2.88-9.65,10.27-15.2,19.38-16.75,10.17-1.73,20.88-2.12,30.15,4.42,1.6,1.13,3.11,2.48,4.41,3.96,1.97,2.24,3.94,5.28,2.89,7.87-.98,2.41-4.5.77-6.88,1.04-4.44.52-7.61-.28-10.58-4.78-3.15-4.78-9.17-4.98-14.78-3.23-5.94,1.85-10.31,6.71-10.9,12.54-1.65,16.11,7.63,21.43,21.83,19.43,2.17-.31,3.85-1.8,5.35-3.37,1.5-1.57,3.38-3.49,2.64-5.51-.8-2.19-3.58-1.17-5.27-.92-5.09.76-6.28-1.38-5.83-6.01.24-2.44,1.03-3.05,3.29-3.01,6.32.11,12.65.14,18.97-.01,2.5-.06,3.09.93,3.06,3.21-.1,6.64.05,13.28-.1,19.91-.04,1.58,1.22,4.13-2.18,4.29-2.61.12-5.26.67-5.77-3.07-.06-.44-.43-.84-.78-1.48Z"/>
  <path class="cls-2" d="m230.06,174.89c.8-4.19,3.8-7.2,5.94-10.6,7.33-11.68,15.06-23.23,18.39-36.76,2.28-9.28,2.45-18.94-.46-28.28-3.38-10.86-13.39-17.63-26.88-15.43-1.31.12-2.99,1.14-3.29-1.3,6.84-5.62,14.68-8.81,23.54-8.69,11.91.16,25.5,11.21,28.49,24.04,2.43,10.4-1.07,19.52-4.66,28.63-6.14,15.55-15.7,28.7-28.9,39.16-3.37,2.67-6.26,5.93-9.37,8.93-.93.11-1.63,2.26-2.79.31Z"/>
  <path class="cls-5" d="m199.72,16.15c0,7.99-7.77,15.51-16.15,15.63-8.14.11-16.76-8.11-16.56-15.81.18-6.82,9.84-16.48,16.53-15.94,7.19.58,16.36,8.66,16.18,16.13Z"/>
  <path class="cls-5" d="m282.69,57.04c.1,6.45-8.97,15.25-15.79,15.32-6.55.06-15.22-8.26-15.54-14.91-.27-5.81,8.67-14.97,14.86-15.22,6.37-.26,16.37,8.74,16.47,14.82Z"/>
  <path class="cls-9" d="m425.96,245.99h9.28c-3.73,2.33-3.7,5.6-3.49,8.97.07,1.04.4,2.54-1.45,2.5-1.86-.03-1.2-1.51-1.39-2.55-.54-2.99,2.23-7.13-2.95-8.92Z"/>
  <path class="cls-4" d="m437.94,251.78c.88,1.12.95,2.41.87,3.76-.06,1.07-.19,1.99-1.6,1.97-1.61-.03-1.25-1.24-1.28-2.14-.06-1.99.03-3.99-.04-5.99-.06-1.72-.23-3.46,2.11-3.71,2.31-.24,2.74,1.4,2.89,3.17.07.82,0,1.66,0,2.49.39,1-.11,1.25-.99,1.18-.2-.21-.28-.45-.25-.73-.57-1.19-1.14-1.19-1.71,0Z"/>
  <path class="cls-8" d="m443.7,247.28c.08-2.08,1.54-1.72,2.86-1.64,1.13.07,1.33.93,1.29,1.74-.18,3.34.47,6.76-.54,10.63-3.08-2.24-.49-5.51-2.37-7.41-2.75-.24-1.42-2-1.24-3.33Z"/>
  <path class="cls-1" d="m443.7,247.28c.14,1.21-.08,2.56,1.24,3.33-.32.88-.72,1.74-.94,2.65-.38,1.62.07,4.33-2.24,4.02-1.93-.26-2.3-2.72-1.85-4.76.33-.39.66-.79.99-1.18,3.29.28.94-3.34,2.8-4.05Z"/>
  <path class="cls-7" d="m223.75,82.52c.71,1.41,2.15.98,3.29,1.3-2.17,1.81-5.04,1.67-7.68,2.61.98-1.89,1.71-3.92,4.39-3.9Z"/>
  <path class="cls-7" d="m178.75,180.67c.89-.12,1.8-.19,2.21-1.19.97,1.17,2.97,2.67,1.23,3.84-1.39.94-2.64-1.24-3.45-2.66Z"/>
  <path class="cls-6" d="m230.06,174.89c.93-.1,1.86-.21,2.79-.31-.76,1.77-2.63,2.21-3.97,3.28-.65-.78-.59-1.6-.16-2.45.33-.47.71-.82,1.34-.52Z"/>
  <path class="cls-7" d="m228.72,175.41c.05.82.1,1.63.16,2.45-.35.71-1.25,1.79-1.57,1.3-1.05-1.6.3-2.72,1.41-3.75Z"/>
  <path class="cls-3" d="m437.94,251.78c.16-.83-.73-2.28.65-2.35,1.18-.06,1.09,1.37,1.07,2.35h-1.71Z"/>
  <path class="cls-2" d="m113.74,308.17c-6.42-14.4-12.76-28.83-19.05-43.29-1.06-2.44-2.54-3.73-5.3-3.44-1.48.16-2.99.03-4.49.03-8.76,0-8.54.08-12.01,8.27-5.6,13.23-11.51,26.33-17.38,39.69-7.28-8.61-14.28-16.88-21.27-25.17-2.2-2.61-.71-4.05,1.47-5.86,6.38-5.28,12.51-10.86,19.38-16.87-5.05,0-9.2.22-13.31-.07-3.79-.27-6.54.86-9.15,3.71-5.57,6.09-12.48,10.79-18.75,18.11v-11.46c0-10.98,0-10.89-10.81-10.35-2.38.12-3.09.79-3.08,3.17.1,14.49.05,28.98.05,43.47,0,.99-.17,2.57.8,2.65,3.88.29,7.91.96,11.63-.23,3.02-.97,1-4.03,1.34-6.1.34-2.11.05-4.32.09-6.48.02-.9,6.64-8.19,7.37-8.03.55.12,1.11.61,1.47,1.08,3.8,4.94,7.42,10.03,11.4,14.82,1.75,2.1,2.97,5.14,6.57,5.1,8.64-.08,17.28-.16,25.92-.05,2.09.03,3.85-.47,4.1-2.46.99-7.73,5.98-8.63,12.35-7.84,2.63.32,5.36.31,7.98,0,3.7-.45,5.76.68,6.8,4.47.68,2.47.91,5.94,4.76,6.06,3.1.09,6.2-.06,9.3-.09,2.07-.02,2.82-.62,1.82-2.85Zm-36.14-16.73c2.34-6.19,4.55-12.04,7.22-19.12,2.69,6.98,4.97,12.88,7.38,19.12h-14.6Z"/>
  <path class="cls-2" d="m373.13,309.16c-1.78-3.9-.9-8.17-1.49-12.22-.56-3.83-1.44-7.81-5.84-9.94,2.51-2.02,5.02-3.16,6.1-6.13,3.73-10.38-1.91-18.88-13.39-19.2-11.32-.31-22.65.04-33.97-.2-3.28-.07-3.79,1.11-3.76,4,.13,13.82.13,27.64,0,41.46-.03,3.31.56,4.29,4.36,4.05,8.88-.55,8.82-.19,9.01-9.1.04-1.96.29-3.88-.11-5.84-.45-2.25.41-3.45,2.88-3.41,4.5.07,9.01-.24,13.48.1,5.43.41,7.32,2.61,7.53,7.76q.44,10.64,11.05,10.58c1.05,0,2.12-.13,3.15-.34.75-.15,1.59-.25.99-1.57Zm-18.37-26.45c-6.21,1.68-12.49.45-18.72.77-1.32.07-2.05-.93-2.04-2.29,0-.3.34-.6.35-.9.04-2.87-.64-7.97.16-8.22,3.16-.96,6.79-.39,10.25-.39,0-.09,0-.18,0-.27,2.82,0,5.64-.04,8.46,0,3.5.05,5.06,2.57,5.44,5.39.36,2.66-.63,5.01-3.91,5.9Z"/>
  <path class="cls-2" d="m416.96,271.86c-4.56-10.52-4.48-10.5-16.8-10.44-2.91.01-4.91.32-5.82,3.78-.9,3.43-2.85,6.58-4.3,9.88-4.88,11.1-9.74,22.2-14.62,33.3-.42.96-1.54,1.94.23,2.69,6.02,2.54,13.73-.63,16.04-6.94.98-2.68,2.45-3.6,5.13-3.53,4.99.12,9.99.16,14.97-.02,2.79-.1,4.65,1.03,5.17,3.56,1.35,6.57,5.5,8.31,11.58,7.4,1.79-.27,3.64-.04,5.92-.04-6.02-13.62-11.83-26.6-17.49-39.64Zm-20.23,19.55c2.36-6.07,4.63-11.89,7.44-19.1,2.8,7.22,5.04,13,7.41,19.1h-14.84Z"/>
  <path class="cls-2" d="m230.46,263.71c-1.21-2.69-15.89-3.42-17.69-1.02-.2.26-.31.58-.44.89-6.55,14.83-13.06,29.69-19.69,44.48-.66,1.48-.96,2.88.77,2.94,4.05.14,8.24.3,12.11-.64,2.09-.51,2.51-3.91,3.2-6.14.84-2.71,2.34-3.68,5.07-3.61,4.98.12,9.98.2,14.96-.03,3.06-.14,5.07,1.21,5.47,3.87.93,6.2,5.06,7.1,10.13,6.83,2.07-.11,4.14-.3,6.97-.5-7.05-15.94-13.89-31.52-20.86-47.06Zm-3.76,27.94c-4.1,0-8.2,0-12.79,0,2.53-6.33,4.86-12.17,7.58-18.96,2.59,6.37,4.6,11.51,6.78,16.58.81,1.88.17,2.39-1.57,2.39Z"/>
</svg>